/* XPM */
static char *ac5c08ebf1bb466f87067546d386cf6auCDV24EcwuZF76eH[] = {
/* columns rows colors chars-per-pixel */
"50 50 219 2 ",
"   c None",
".  c #2C3E02",
"X  c #2D262C",
"o  c #5C0101",
"O  c #550101",
"+  c #690101",
"@  c #740101",
"#  c #7A0404",
"$  c #0C4F03",
"%  c #0B5404",
"&  c #0A5C06",
"*  c #0D5A1A",
"=  c #0A6207",
"-  c #096C09",
";  c #096A06",
":  c #09750B",
">  c #097B0C",
",  c #097917",
"<  c #0C611E",
"1  c #0C5629",
"2  c #0D4C2A",
"3  c #0B6B2E",
"4  c #36375F",
"5  c #0F0F75",
"6  c #1B2D6F",
"7  c #292A78",
"8  c #1E1E4E",
"9  c #0F5549",
"0  c #126B4A",
"q  c #13754E",
"w  c #165E68",
"e  c #196570",
"r  c #766E57",
"t  c #48537F",
"y  c #5B6E71",
"u  c #66776B",
"i  c #637771",
"p  c #666377",
"a  c #850303",
"s  c #8D0202",
"d  c #870B0B",
"f  c #9D0202",
"g  c #980808",
"h  c #901515",
"j  c #A20101",
"k  c #AD0202",
"l  c #A90A0B",
"z  c #B10202",
"x  c #BB0202",
"c  c #B41212",
"v  c #BA1619",
"b  c #B30E11",
"n  c #8D2B2B",
"m  c #AF2B2B",
"M  c #C70101",
"N  c #C5060A",
"B  c #D30302",
"V  c #DC0000",
"C  c #DB0A01",
"Z  c #DD0B0B",
"A  c #D30507",
"S  c #CA0F12",
"D  c #C13838",
"F  c #994646",
"G  c #8E5555",
"H  c #A75054",
"J  c #916363",
"K  c #A9797B",
"L  c #AC7070",
"P  c #8B4966",
"I  c #D05357",
"U  c #D07575",
"Y  c #08830E",
"T  c #08890F",
"R  c #088D10",
"E  c #089411",
"W  c #079B14",
"Q  c #08971A",
"!  c #08920F",
"~  c #07A014",
"^  c #099321",
"/  c #09A120",
"(  c #7C894B",
")  c #788968",
"_  c #6E847E",
"`  c #778A77",
"'  c #7F9061",
"]  c #B9AC12",
"[  c #9B9838",
"{  c #A79B2C",
"}  c #B4BC37",
"|  c #AFB42C",
" . c #DAB602",
".. c #C5AE16",
"X. c #BAC22F",
"o. c #D7D609",
"O. c #C7C919",
"+. c #D7DA1A",
"@. c #DFC000",
"#. c #E2DE00",
"$. c #DCE01B",
"%. c #E6E60B",
"&. c #F4F304",
"*. c #FEFE0A",
"=. c #F8F808",
"-. c #E5E918",
";. c #F4F512",
":. c #F6F816",
">. c #F1EF02",
",. c #D6DA25",
"<. c #C5CB2E",
"1. c #D8E03B",
"2. c #E5EA28",
"3. c #919D4B",
"4. c #8C9850",
"5. c #9AA546",
"6. c #93A259",
"7. c #AAB649",
"8. c #B1BB48",
"9. c #AEBB5A",
"0. c #8A9B6E",
"q. c #8E9F71",
"w. c #95A46E",
"e. c #BBC755",
"r. c #B0C17B",
"t. c #CAD451",
"y. c #DAE241",
"u. c #C4D166",
"i. c #171A8A",
"p. c #2D3A8B",
"a. c #264C8B",
"s. c #2C449B",
"d. c #295795",
"f. c #23648E",
"g. c #3846A1",
"h. c #3E5EB9",
"j. c #3354A8",
"k. c #3265A3",
"l. c #445D96",
"z. c #484D8F",
"x. c #5C7386",
"c. c #536A8C",
"v. c #4B58A8",
"b. c #4A6BA1",
"n. c #516DB1",
"m. c #617EB1",
"M. c #617DA8",
"N. c #395FCA",
"B. c #3B65D9",
"V. c #3561CB",
"C. c #3E65E7",
"Z. c #5575CC",
"A. c #4F71CE",
"S. c #637DD9",
"D. c #4169E8",
"F. c #456DF2",
"G. c #4D74FA",
"H. c #547AED",
"J. c #837AA7",
"K. c #778F82",
"L. c #73898D",
"P. c #7288A7",
"I. c #758DA2",
"U. c #6987C0",
"Y. c #5E80F7",
"T. c #6B8AF2",
"R. c #868599",
"E. c #9B9797",
"W. c #829597",
"Q. c #AD9294",
"!. c #A0B585",
"~. c #9799A4",
"^. c #8E91B5",
"/. c #A69CA4",
"(. c #B7B7BA",
"). c #A6A9B3",
"_. c #9EB391",
"`. c #F19B9B",
"'. c #C7A9A9",
"]. c #F4ADAD",
"[. c #F4B0B0",
"{. c #CC8F8F",
"}. c #A399C0",
"|. c #99A7D9",
" X c #BABCC1",
".X c #ABAECA",
"XX c #839BF2",
"oX c #99AAE6",
"OX c #8EA3EE",
"+X c #A5B7F7",
"@X c #B8B9E0",
"#X c #C5BED8",
"$X c #BAC9FF",
"%X c #CCCACA",
"&X c #C4CADD",
"*X c #D9CCD1",
"=X c #CCD3EB",
"-X c #D4D7E6",
";X c #C7D2F8",
":X c #D4DBF3",
">X c #D5DEFB",
",X c #C7CFEF",
"<X c #DEE1E9",
"1X c #DDE5FD",
"2X c #E2E5EC",
"3X c #E9E9E9",
"4X c #E3E3E3",
"5X c #FBE1E1",
"6X c #F7E9E9",
"7X c #E4EAFE",
"8X c #EAEEFF",
"9X c #E6E9F5",
"0X c #EEF2FF",
"qX c #FAF3F3",
"wX c #F3F5FF",
"eX c #F6F8FE",
"rX c #FEFDFE",
"tX c #F4F4F4",
"yX c #E2D1D1",
/* pixels */
"                                                                                                    ",
"                                                                                                    ",
"                                                                                                    ",
"                                                                                                    ",
"                                                                                                    ",
"                                                                                                    ",
"                                              H.H.Y.Y.                                              ",
"                                        H.C.N.b.c.l.h.D.G.H.                                        ",
"  :X                                H.B.i O.;.;.;.;.:.-.3.h.F.                                  :X  ",
"  &X1X7X                          F.c.<.2.=.*.*.*.*.*.*.>.9.) B.G.                          7X1X&X  ",
"    >X1X7X7X                    C.) +.I.I.-.=.:.*.*.*.*.7.Z.q.} n.G.                    0X0X7X1X    ",
"    =X1X1X7X0X0XeX            D.0.;.*.u i ;.:.y.u.u.2.:.,.r <.=.X.A.G.            rXeX0X0X7X7X=X    ",
"      :X7X7X8X0XwXeXrXrXrX7XG.` %.*.*.;.1.I.Y.B.V.V.B.H._.2.;.=.*.X.C.  rXrXrXrXrXrXwX0X0X7X:X      ",
"      ~.1X7X0X0XwXeXrXrXrX$Xn.+.*.*.=.r.C.d.3 / / / ^ 0 V.U.1.:.*.&.q.T.wXrXrXrXrXrXeXwX0X1X~.      ",
"        .X9X0X0XeXeXrXrXwXH.6.&.*.*.!.V.0 Q W W ~ ~ W ~ ^ e A.t.*.*.+.m.;XrXrXrXrXeXwX0X9X X        ",
"          ).<X0XwXeXrXrX+XU.e.t.*.e.V.q W W W W W W W W W Q w U.y.-.e.0.Y.eXrXrXrXrXeX2X).          ",
"              :XeXrXrXeXT.5.4.c.<.A.q R E E E Q E E E E E E R e I.8.j.5.P.>XrXrXrXeX2X              ",
"        7XwXtXwXwXeXrX;XZ.,.O.5.P.f.T T R R T R R R R R R R E 3 k.8.4.| L.XXrXrXrXrXeXwXwX7X        ",
"        &X8X0XwXeXeXrX+X_ %.=.,.b.3 T T T T T T T T T T T T R T w m.-.>.} T.rXrXrXrXwXwX0X&X        ",
"          9X0XwXeXrXrXOX7.&.=.q.d., Y > > Y > Y Y > Y Y Y > Y T , b.,.&.+.Z.:XrXrXeXeX0X7X          ",
"          -XwXwXeXrX7XS.8.&.&.K.0 > > > > > > > > > > > > > > > , a.q.&.$.b.+XrXrXeXeXwX-X          ",
"            2XwXeXrX>Xn.} >.+.x.3 : : : : : : : : : : > : : : > , 9 K.>.%.` oXrXrXrXwX2X            ",
"              9XeXrX;Xb.<.,.X.d.3 - - - - - - - - : - - - - - : : 3 K.%.#.6.oXrXrXeX9X              ",
"                2XrX;Xx.w.P.` a.* ; ; ; ; = - - - = ; - - ; ; ; - 1 x.w.W.) oXrXrX2X                ",
"                  3X;Xx.3.y 5.a.* & = = = = = = = = = = = = = = = 1 x.u c.3.oXrX3X                  ",
"              wXeXrX=Xc.] o.5.a.* & & & & & & & & & & & & & & & & 1 i O.o.3.oXrXrXeX0X              ",
"              (.eXrX=Xl.X.%.| d.1 % % % % % % % % % % % % % & % % 2 u o.o.( |.rXrXeX(.              ",
"                 XqX-Xv.| #.] t 2 $ $ $ $ $ $ % % $ $ % % $ $ % $ 9 u #.o.y |.eXtX(.                ",
"                    E.n.[  . .r X . . . . . . . . . . . . . . . . 4 r  ...z.).(.                    ",
"                      N C C V A B B B B B M B B B B B B M A B B B A V C C N b                       ",
"                  f k M V V V V V V C V V V V V V V V V V V V V V V V V V V x j                     ",
"                  f k M Z Z Z Z Z Z Z Z Z Z Z Z Z Z Z Z Z Z Z Z Z Z Z Z Z A x f                     ",
"                  g b I `.].].[.[.[.[.].].[.].].[.].].].].].[.].].].].].`.I S z s                   ",
"                  H J.^.0XeXrXrXrXrXrXrXrXrXrXrXrXrXrXrXrXrXrXrXrXrXqXqXrX#XJ.J.h                   ",
"                  E.z.i.@XrXrXrXrXrXrXrXrXrXrXrXrXrXrXrXrXrXrXrXrXrXrXrX9Xg.i.R.E.                  ",
"                  z.5 v.9XrXrXrXrXrXrXrXrXrXrXrXrXrXrXrXrXrXrXrXrXrXrXrXrX.X5 7 R.                  ",
"                  ~.i.z.*X5X5X5X5X5X5X5X5X5X5X5X5X5X5X5X5X5X5X5X5X5X5X5X6X}.5 R.E.                  ",
"            k f n Q.P S Z Z Z Z Z Z Z Z Z Z Z Z Z Z Z Z Z Z Z Z Z Z Z Z Z Z H /.J s f z             ",
"      k z z k f n G l M V V V V V V V V V V V V V V V V V V V V V V V V C B x m G s f k z z k       ",
"      k z z l g n h k M A V V V V V A A A A C C C C C C A A A A V V V V A V x f n h l z z z         ",
"        b D U '.L g k k             X 7 p.p [ ] ] ] { r z.7 8             j z f n '.{.I m g         ",
"        *XqXqX4XJ.h +                   8 7 s.s.g.g.s.p.6                     s F %X4XqX5X          ",
"          qXrX4XU d +                                                         @ F %X3XrXeX          ",
"          rXqX4Xw.s o                                                         # H %X3XrXrX          ",
"          qX6X%XL # o                                                         # m Q.yXqX6X          ",
"          c c g a @ o                                                         + # d l c c           ",
"        k z k f a @ O                                                         + # s j z z           ",
"        k k k f # +                                                           o @ s j k k z         ",
"        s                                                                               # f         ",
"                                                                                                    "
};
