/* XPM */
static char *b64002d4a80a4e8284d0886e7ebc75bc1i0R45tcdXOUd1ZB[] = {
/* columns rows colors chars-per-pixel */
"65 50 205 2 ",
"   c None",
".  c #253F0E",
"X  c #5A0202",
"o  c #540202",
"O  c #6C0101",
"+  c #730101",
"@  c #7C0101",
"#  c #0B4F03",
"$  c #0A5404",
"%  c #0A5C06",
"&  c #234102",
"*  c #0A6207",
"=  c #096C09",
"-  c #0A6708",
";  c #09750B",
":  c #097B0C",
">  c #097618",
",  c #0E5D38",
"<  c #0F4D25",
"1  c #0B6923",
"2  c #0D6332",
"3  c #121942",
"4  c #192055",
"5  c #0C0E77",
"6  c #0E1177",
"7  c #151770",
"8  c #182A6F",
"9  c #383B76",
"0  c #2A2B74",
"q  c #1B4975",
"w  c #324365",
"e  c #144F5C",
"r  c #5B6B5C",
"t  c #68754C",
"y  c #485C77",
"u  c #78587F",
"i  c #51667A",
"p  c #5F7276",
"a  c #840101",
"s  c #8C0202",
"d  c #950202",
"f  c #9C0101",
"g  c #991313",
"h  c #A50202",
"j  c #AC0101",
"k  c #B00202",
"l  c #BD0000",
"z  c #B30C0C",
"x  c #B61414",
"c  c #892222",
"v  c #933B3B",
"b  c #853838",
"n  c #AE2729",
"m  c #C60000",
"M  c #D10000",
"N  c #DC0000",
"B  c #C61919",
"V  c #C73131",
"C  c #A24747",
"Z  c #8B6262",
"A  c #917B7B",
"S  c #AC7A7A",
"D  c #A76B6B",
"F  c #E67474",
"G  c #CE6666",
"H  c #08830E",
"J  c #08880F",
"K  c #088E10",
"L  c #078613",
"P  c #089411",
"I  c #079B13",
"U  c #079013",
"Y  c #07A214",
"T  c #798543",
"R  c #738263",
"E  c #BEB607",
"W  c #AFB01B",
"Q  c #8D9534",
"!  c #9CA435",
"~  c #ABAC28",
"^  c #ACB32D",
"/  c #AFB531",
"(  c #D9BF04",
")  c #CBB107",
"_  c #C9C90D",
"`  c #DCDB05",
"'  c #D9D70C",
"]  c #C9CB17",
"[  c #D5CD0D",
"{  c #E0DE05",
"}  c #ECEB06",
"|  c #E8E709",
" . c #F0EF07",
".. c #F4F307",
"X. c #FEFE09",
"o. c #F5F50A",
"O. c #EDEF15",
"+. c #CAD134",
"@. c #CCD22A",
"#. c #DEE226",
"$. c #E8ED30",
"%. c #88944A",
"&. c #919949",
"*. c #879351",
"=. c #B2BB40",
"-. c #848860",
";. c #9AA87A",
":. c #A3B26B",
">. c #D2DC55",
",. c #C5D26C",
"<. c #0B0E86",
"1. c #13168F",
"2. c #1F3794",
"3. c #1D3488",
"4. c #233688",
"5. c #283D98",
"6. c #34369B",
"7. c #233EA3",
"8. c #1C4986",
"9. c #1E4990",
"0. c #3C5489",
"q. c #21479C",
"w. c #344E9D",
"e. c #324A92",
"r. c #2442AB",
"t. c #2745AA",
"y. c #324EA6",
"u. c #2747B8",
"i. c #3A56AC",
"p. c #4B5B9B",
"a. c #484A93",
"s. c #486193",
"d. c #506290",
"f. c #63798E",
"g. c #536BAF",
"h. c #7273B1",
"j. c #2A4CC5",
"k. c #2A4DCC",
"l. c #2E52CE",
"z. c #2E50C3",
"x. c #2E54DB",
"c. c #2D53D6",
"v. c #3153CB",
"b. c #3F64DE",
"n. c #2F58E3",
"m. c #3059E6",
"M. c #325BEB",
"N. c #3057E2",
"B. c #335EF3",
"V. c #3A65FC",
"C. c #3964FB",
"Z. c #4B6BDA",
"A. c #5371CA",
"S. c #4A6DE6",
"D. c #426BF8",
"F. c #4C74FE",
"G. c #547AFE",
"H. c #547AEF",
"J. c #7691B3",
"K. c #7F80C3",
"L. c #5E82FF",
"P. c #6789FF",
"I. c #7291F2",
"U. c #949494",
"Y. c gray60",
"T. c #898888",
"R. c #98AC8F",
"E. c #A6BA95",
"W. c #8B98A8",
"Q. c #999AB6",
"!. c #9FA3AD",
"~. c #A7AAB4",
"^. c #B1B1B1",
"/. c #BFB7B7",
"(. c #B1A2A7",
"). c #A58798",
"_. c #F29D9D",
"`. c #CCB1B1",
"'. c #F4ADAD",
"]. c #F5B5B5",
"[. c #CE8989",
"{. c #819AF3",
"}. c #99ADF3",
"|. c #A6AFE2",
" X c #C7C7C7",
".X c #CCCDD3",
"XX c #DCDBDB",
"oX c #D3D4D5",
"OX c #E1D8D8",
"+X c #CAD1E9",
"@X c #D8DCE9",
"#X c #D1DAFB",
"$X c #DDE5FF",
"%X c #DBE0F0",
"&X c #EEEDED",
"*X c #E4E4E7",
"=X c #FDEDED",
"-X c #E4EBFF",
";X c #EAEEFE",
":X c #E4E9FB",
">X c #EDF1FF",
",X c #F3F5FF",
"<X c #F6F9FF",
"1X c #FEFEFF",
"2X c #F9F3F3",
/* pixels */
"                                                                                                                                  ",
"                                                                                                                                  ",
"                                                                                                                                  ",
"                                                                                                                                  ",
"                                                                                                                                  ",
"                                                                                                                                  ",
"                                                          P.P.P.L.P.P.                                                            ",
"                                                    G.V.M.l.y.0.0.w.z.m.C.F.P.                                                    ",
"  +X-X                                        P.V.m.y W O.X.X.X.X.X.X.o._ r k.V.L.                                          -X+X  ",
"    $X$X-X                                  F.m.t o.O.X.X.X.X.X.X.X.X.X.X.X.:.Q v.D.                                    ;X$X$X    ",
"    +X$X$X$X-X>X                          C.0. .#.A.A.+.X.X.X.X.X.X.X.X.X.g.Z.f.X.r C.L.                          ,X>X-X-X$X+X    ",
"      $X$X-X-X-X;X>X,X<X              G.C.T X.X.X.e.5.X.X.X.$.>.,.>.O.X.X.+.w @.X.X.W m.G.                1X1X,X,X>X-X-X-X-X      ",
"        $X:X-X-X;X>X,X,X<X<X1X1X1X1XP.C.! X.X.X.X.X.X.E.F.C.M.x.x.N.C.V.I.>.X.X.X.X.X.' m.F.  1X1X1X1X1X1X1X<X<X,X>X>X-X-X        ",
"          :X-X-X>X>X,X,X<X1X1X1X1X$XV.Q X.X.X.X.X.E.V.c.e L Y Y Y Y I 1 9.m.F.$.X.X.X.X.] B.}.1X1X1X1X1X1X1X<X,X,X>X>X-X          ",
"            %X;X>X>X,X,X<X1X1X1X1XD.i X.X.X.X.X.H.m., I Y I Y I Y Y Y Y Y U 8.C.R.X.X.X.X.! C.>X1X1X1X1X1X1X<X,X>X>X@X            ",
"              !.>X>X,X<X<X1X1X1XI.x.X.J.X.X.o.D.u.U I I I I I I I I I I I I I 2 M.J.X.X.R.o.i.D.1X1X1X1X1X1X1X,X,X!.              ",
"                  @X,X<X<X<X1X<XC.~ / u.i o.S.t.U P P P P P P P P P P P P P P P > n.R.] u.y.| M.#X1X1X1X1X1X<X@X                  ",
"          -X;X,X,X,X,X<X1X1X1X{.l...' W &.J.k.K K K K K K J K K K K K K P K K K U 2 M.#.Q t o.s.D.1X1X1X1X1X<X,X<X,X;X-X          ",
"          ~.-X>X,X,X<X<X<X1X1XM.%.......#.n.1 J J J J J J J J J J J J J J J J J L L 9.b.....o.] m.<X1X1X1X1X<X,X,X>X;X~.          ",
"            %X>X>X,X,X<X1X1X:Xx.| ......g.q.H H : H H : H H : H H H : H H H H H H J : c.+... .o.l.|.1X1X1X1X<X,X>X>X%X            ",
"              ;X>X,X<X<X2X1X}.k. . . .} x.1 ; : : : : : : : : : : : : : : : : : : : : 9.g.}  . .s.Z.1X1X1X1X<X,X,X;X              ",
"                ,X,X<X<X1X1XZ.s.} } } / k.; ; ; ; ; ; ; ; ; ; ; ; ; ; ; ; ; ; ; ; ; ; , c.} } } &.c.1X1X1X1X<X<X>X                ",
"                  :X<X1X1X1Xv.R } +.} f.r.= = = ; = = ; = = = ; ; = = ; = ; ; = = ; ; - k.' | | ] k.<X1X1X1X<X:X                  ",
"                    .X<X1X1Xk.&.;.S.:.i.8.- - = - - - - - - - - - - - = - = - - = = = - j./ W.J./ k.<X1X1X<X.X                    ",
"                      T.1X1Xu.! %.3.' y.q * * % * % * * * * * * * * - * * * * - * * * - j./ a.q.' j.<X1X1XT.                      ",
"                  ,X<X1X1X1Xu.*._ | ` w.q % % % % % % % % % % % % % % * % % % $ % % % % u.^ _ ' ] u.1X1X1X1X<X,X                  ",
"                    <X1X1X1Xy.p { { { y r.$ $ $ $ $ $ $ $ $ $ $ $ $ $ $ $ $ $ % $ % % $ u._ { { ^ t.1X1X1X<X,X                    ",
"                      oX1X1Xg.y.` ` ` Q u.# # # # # # $ # # $ # # # # # $ # # # # # # < 7.' { ` t t.1X1X1XoX                      ",
"                          Y.W.r.` [ ( ) 6.& & & & . & & . & & & & & & & & & & & & & & w 9 ( ( [ y.g.XXY.                          ",
"                            l M N N N N N N N N N N N N N N N N N N N N N N N M N N N N N N N N N m                               ",
"                        f j l M N N N N N N N N N N N N N N N N N N N N N N N N N N N N N N N N N m k h                           ",
"                        d j l M N N N N N N N N N N N N N N N N N N N N N N N N N N N N N N N N N m k f a                         ",
"                      a f j n F ].].].].].].].].].].].].].].].].].].].].].].].].].].].].'.'.'._.F V k h a                         ",
"                      @ D  X6.&X1X1X1X1X1X1X1X1X1X1X1X1X1X1X1X1X1X1X1X1X1X1X1X1X1X1X1X1X1X1X1X1X2Xh.Q.S a                         ",
"                      U.^.a.<.1.1X1X1X1X1X1X1X1X1X1X1X1X1X1X1X1X1X1X1X1X1X1X1X1X1X1X1X1X1X1X1X1X6.<.7 ^.U.                        ",
"                      U.0 5 <.|.1X1X1X1X1X1X1X1X1X1X1X1X1X1X1X1X1X1X1X1X1X1X1X1X1X1X1X1X1X1X1X1X1X6 6 7 Y.                        ",
"                      U.^.6 1.J.2X=X=X=X=X=X=X=X=X=X=X=X=X=X=X=X=X=X=X=X=X=X=X=X=X=X=X=X=X=X=X2X*X6 5 ^.U.                        ",
"              k j f s Z ^.u B N N N N N N N N N N N N N N N N N N N N N N N N N N N N N N N N N N B ).^.A d d h k                 ",
"      s k k k k j f s Z C j l M N N N N N N N N N N N N N N N N N N N N N N N N N N N N N N N N N m k v A a d h k k k k j         ",
"        h k k k j f s b d h m M N N N N N N N N N N N N N N N N N N N N N N N N N N N N N N N N N m k f c a d h j k k j           ",
"          z x V F `.`.v d h k d                 3 4.5.p.-.W E ) ) E W *.d.5.4.4                   l k f c /.`.[.G x z             ",
"            1X1X2X*X Xv d o                           8 3.7.r.t.t.r.7.5.8 3                         o f c  XoX&X1X1XXX            ",
"            XX1X1X*X Xv + X                                                                           + c `.XX&X1X1X              ",
"              1X1X*X.Xv a X                                                                           O n  XXX&X1X1X              ",
"            1X1X1XOX(.v a X                                                                           @ g S `.&X1X1X              ",
"            z k j f d a + X                                                                           O + s d h k z z             ",
"          j k k j h s @ O o                                                                           O @ a f h k k k             ",
"          k k k j h s @ X                                                                             o + a d h k k k             ",
"          d +                                                                                                     O a f           ",
"                                                                                                                                  "
};
