/* XPM */
static char *_ab42156a0a74412b06e8e0044243e7aAiLJgcR6Bboqr2xy[] = {
/* columns rows colors chars-per-pixel */
"50 50 112 2 ",
"   c #1D4F1F",
".  c #1C541E",
"X  c #1C5C1F",
"o  c #2F551D",
"O  c #32571E",
"+  c #335C1E",
"@  c #395E1F",
"#  c #36611F",
"$  c #3B641F",
"%  c #1E5621",
"&  c #1E5C21",
"*  c #215624",
"=  c #2D5522",
"-  c #225D24",
";  c #2F5B21",
":  c #265D28",
">  c #295E2A",
",  c #325622",
"<  c #355C23",
"1  c #395E24",
"2  c #355D29",
"3  c #395F29",
"4  c #1E6321",
"5  c #1E6A22",
"6  c #226325",
"7  c #286426",
"8  c #226B26",
"9  c #2A6A27",
"0  c #266429",
"q  c #29652C",
"w  c #266C29",
"e  c #2A6B2C",
"r  c #366123",
"t  c #3B6424",
"y  c #3E6924",
"u  c #366329",
"i  c #3B6429",
"p  c #3E6429",
"a  c #3C6728",
"s  c #3F6628",
"d  c #3E672B",
"f  c #3F662E",
"g  c #316C2E",
"h  c #3E6829",
"j  c #3C6B2A",
"k  c #3E6D28",
"l  c #3F6E2E",
"z  c #237026",
"x  c #237126",
"c  c #267229",
"v  c #27722B",
"b  c #28702B",
"n  c #28732C",
"m  c #2A732D",
"M  c #2C702F",
"N  c #2A752D",
"B  c #27782B",
"V  c #2C792F",
"C  c #3F7027",
"Z  c #31722D",
"A  c #3E702B",
"S  c #2E6C31",
"D  c #326B33",
"F  c #2D7330",
"G  c #317834",
"H  c #406725",
"J  c #406A22",
"K  c #416A23",
"L  c #406C21",
"P  c #446D22",
"I  c #446D23",
"U  c #456D23",
"Y  c #416824",
"T  c #426C25",
"R  c #426C27",
"E  c #456E24",
"W  c #466E25",
"Q  c #41672A",
"!  c #406929",
"~  c #426A28",
"^  c #436A2B",
"/  c #436C28",
"(  c #426C29",
")  c #456E28",
"_  c #416A2C",
"`  c #466A2E",
"'  c #416D2D",
"]  c #456D2D",
"[  c #427227",
"{  c #447025",
"}  c #457125",
"|  c #427128",
" . c #437328",
".. c #44732B",
"X. c #47722B",
"o. c #467428",
"O. c #457729",
"+. c #47762B",
"@. c #45722F",
"#. c #45752C",
"$. c #497129",
"%. c #497228",
"&. c #497528",
"*. c #487629",
"=. c #4A742A",
"-. c #44782B",
";. c #4A792D",
":. c #426B31",
">. c #406D33",
",. c #447031",
"<. c #487430",
"1. c #497630",
/* pixels */
"1 r u Q p < i u 1 W E E t + 1 u t u t p t r r 1 3 > 0 6 6 6 6 q e q 0 % & c 5 5 4 % 4 q 0 0 e 0 0 0 ",
"t 1 _ #.` ! ! p Q / R E R $ u y y 2 r Q t r t 1 i q q - & 0 0 0 & & & 4 w 5 5 5 & & & e S S S & 0 w ",
"/ ] ' ' 1.1.] ' H H Y %.} } } E Y r $ p u t p Q l D S e - w 0 & & 0 5 w 5 8 5 5 5 0 e e S F S 5 0 w ",
" .+.#.k p :._ p p i t u t I P r t E y y I p i Q l q : 6 4 8 4 4 5 & w w 8 5 0 0 q e q S q e w e n n ",
"o.o.o.k R ! H 3 1 1 Y + @ H 1 O 1 t t Y $.} !  .l n e 6 4 8 4 6 5 % & 4 4 & 4 w 0 : 0 0 0 5 5 F n n ",
"[ +.[ R *.%.Y 3 r t &.t < y 3 < t t y t i ` ) R h e e w 6 : - 8 4 & % : 4 4 w 5 4 0 : w 5 5 5 e c n ",
"o.;.+. .I E t 1 Y E E } E H r r 1 r [ } H W W R l e 6 8 6 8 5 8 4 : - - 0 n e 8 c w & 5 w e e n n n ",
"1.+.@.} R 1 E } E E } I } E I t 1 r r E %.! ! Y k e 8 8 8 x 8 6 & 5 0 w c n n n 5 4 5 5 & 5 5 S n F ",
"d d u k } y E } $ Y E I I I t $ $ y r p +.@.h p i e w e c 8 0 0 4 : 5 w w 5 5 4 4 8 5 5 4 4 5 : e q ",
"1 < Y E Y W J P Y $ t Y $ t t r @ # y R p ,.h Y i q 0 q w n 8 8 4 % % - 4 5 0 & 4 c 5 5 5 4 5 0 : q ",
"Y y y t t t t / y t r y $ 1 1 + + @ W W }  .R $.C 8 c 8 8 8 8 4 & % % & & 5 4 % 4 0 5 0 0 5 w 5 4 0 ",
"! 1 O < p Q y h t $ < $ 1 O O p 2 < ! $.;.R W W y 5 x 8 5 8 8 8 % % & % % & 0 & & 4 5 q w e & & & 5 ",
"H Y 1 3 ` @.h h I y y $ E 1 , ` d p i i t $ Y E r 6 8 5 4 6 q q : q & % % 5 w 5 4 8 q e w q & - e & ",
"1 , < Q *.@.d f y y R I  .y 1 i d >.l i t Y *.W < 6 8 x 4 & 0 0 e q % : : n c w 8 0 : - 5 e q : : & ",
"$.H 3 p ] h p l p i y t p *.! ! ' :.>.d r r R P r 8 x 8 4 & 4 : q q 0 0 w 0 q 4 0 q q : 0 4 0 q q w ",
"/ W Y y Q 3 p A u I y u Y t / t 1 _ l i Y r @ E u 8 5 & 4 8 0 q q 4 w 5 0 4 4 4 5 & q 0 : 4 & 5 v n ",
"# y t R y < p u # t I y Q y < $ r / / p / y @ R u - 8 - 4 9 e c e 8 7 - 0 - 5 5 4 . & & & w 5 & 6 6 ",
"y t } < r < , , 1 Y I y  . .R u H ! R } } y # W +.9 6 6 5 8 n c w e 0 8 5 e w 4 4 .   & - 0 : 5 X 6 ",
"p y t 1 1 u 1 u t R W E W p k t y / I %.[ P t } } B x e 8 8 V c b 8 & 8 8 c 8 e & & 0 - 0 & % % o 4 ",
", 1 < r r 1 t u i h ! } y + @ O r < p t I t , < r q 0 q 0 n e 0 q q & X 4 0 8 w 0 - q : : & % & & . ",
"u , 2 y I < p h h p 2 H y 1 O < 1 + u u 3 < i u 2 > q 0 - q q 0 6 - - : X w w 0 0 : : 0 & w & * * * ",
"u < i 1 y r r h p l H Y R u < u k k h y 1 t h / D q e e q q S 8 8 q 0 - 0 w 8 6 q S e 0 & 4 % 0 : q ",
"3 < y r &.I 1 Q 1 2 / y Y p r y +.;.#.R y / #.;.' e V n e 0 c n V F n e w 6 B 9 : q S 0 w 5 & w q : ",
":.t y Y E y r u 1 < @ t  .! r y +.+.@. ./  .,. .k e n n w n e 8 b b 8 0 & 4 w 6 q q > & w v w e q e ",
"k u p u r < ; r r l k k k r u k  .k A i u r j h u e Z Z e g g 7 7 9 7 - ; 9 9 9 g 9 g g 6 - 9 7 - 0 ",
"0 6 6 6 6 0 6 6 & 0 6 - 8 8 9 8 - 6 q 0 e w 0 0 7 u u p h ! p p 1 O $ $ W [ r < 1 y r r < @ t r < 2 ",
"0 0 6 6 0 q 6 - & 0 6 4 8 c x 8 - - e e e F 0 0 7 r t ! 1.l ..h < O Y Y +.[ y t p t t O 1 1 @ # < < ",
": : 0 e e 0 8 6 0 8 5 5 w 8 4 0 0 0 e w S e q e e k ! ! k / ,./ t t Y t I [ E } Y t r $ # # r @ < ; ",
"e & 0 w 5 4 8 8 & 0 8 5 6 & 6 q - - q q q w n b e  .+.I k t / l p p 3 1 1 R W Y # + $ $ Y P t + < y ",
"8 0 4 v 8 8 8 4 % & 8 5 - 4 4 q q 0 & 4 8 8 n 8 8 A } [ k y p h ` i 1 Y r 1 Y t 1 @ # t y Y } # k A ",
"0 4 8 0 : & 6 6 & - & 4 4 5 4 4 0 0 8 5 5 8 9 B n +.;.R R E } E t t y o.} t t 1 1 + # # u 2 p  .y y ",
"4 4 6 e n v 6 6 0 0 & 0 x x 5 c 8 0 w 8 5 5 8 v n  .o.[ } y y Y t R *.I } &.H u r r r [ } R / R  ./ ",
"4 8 4 w z 8 8 0 4 4 8 c z 8 z c c 5 c 5 4 5 0 8 S l ..l } W u Y $ P P $ t } Y } H t u y y $ o.E I r ",
"0 0 e n e 8 w e & 4 4 5 5 8 w w c x 5 5 5 4 & : S k i r t } *.*.o.E $ I I I Y Y t r y y t y k y @ u ",
"q e V F e 5 4 4 & 0 4 4 5 4 & w n 5 5 5 4 4 & & 9 u r y E Y W W E y @ @ H $ y t @ r t E } y y A y u ",
"V n e w z 5 & & : 0 % & 4 & % w e 5 5 w 5 4 5 0 e p r y t H t t t t r t t y r 1 < , @ y I } y R [ C ",
"z c 8 8 b 4 4 - : 0 : * 4 & - 0 0 8 e S q % % 4 9 y t p < u _ ! P t t r @ t 1 1 l 2 ; t $ I t y } y ",
"4 5 8 4 0 - 0 q q q 0 & 8 4 5 b 8 q e V e q 8 e 9 t R h 3 ! ) ! t t t y P E 1 r h i r h , r $ $ $ $ ",
"4 z z 4 6 - q S S q 0 q w 5 z F S - q G F S q : 7 , u i t ! ! d u Q ! Y P W Y r r l p u r # y $ $ $ ",
"z c 8 & 4 6 q S e q 8 c 0 8 0 e q 0 q e q q q e 9 y R p ` ! _ h H d ! y y u W t 1 i i r y $ $ $ $ { ",
"5 5 & 5 5 0 0 q 0 w 5 q 0 0 5 0 - e & : - 0 8 c 9 [ o.y ! h d d r 1 y k y R r $ 1 + p >.h R p @ t t ",
"4 8 0 5 w 0 0 S & & & S e 5 5 5 6 : 0 - 8 6 4 4 8 y t k p / u < < + y E y p R u + 1 Y y h W # r E p ",
"c 0 w e w w 5 5 0 0 5 b n w 5 0 & % - % & 0 8 0 6 y 1 I u t i , O 1 t E $ $ } y Q Y E E } } [ y R *.",
"B c w c n n w e 0 5 w w n 5 w 0 & & q q & & & 4 6 t y u r t d h / p 1 E } } y r t p p R } E E t E +.",
"& : > q e 0 0 & & & & & w 5 e & - 0 : 0 6 & - % . = < r # t u i _ 3 u t Y W @ < @ + u i Q } u 1 2 < ",
"* : : q q q e 0 0 : q 4 8 0 - q q 0 0 & 4 - : % * , 2 < t $ t / p l 2 2 t t , t O 1 t R Q 1 , i 2 u ",
"& 5 w 0 0 w c c e q e e w 5 w q : 0 & & 4 0 0 q q i i < u y t p Q p 1 ! I I p 1 , k [ R A p 1 y y t ",
"& c e w 8 w n c w e 0 0 4 w c q 0 0 & 5 5 0 q q q i p r y } } y 1 p O Y y t p r t C R  .k y r ! +.y ",
"w n c e w w e n n e & 4 e 5 : 0 q & & 4 5 n 0 e > p p u Y } R u i p r r < r t @ y } +. .[ / h [ / y ",
": 5 w 0 w 0 e F F n 0 0 w 0 5 w q 4 & % 0 e e 0 e g u h u p < u h p #.y y A u u u k k A j i j k j u "
};
