/* XPM */
static char *_0566418d1be4902b3aa89465f7fd274c0BK8mjdL36DwBaU[] = {
/* columns rows colors chars-per-pixel */
"50 50 239 2 ",
"   c None",
".  c #30392E",
"X  c #0E0B06",
"o  c #570607",
"O  c #491818",
"+  c #4C1515",
"@  c #6A0606",
"#  c #63191A",
"$  c #750A0A",
"%  c #701F20",
"&  c #573A3A",
"*  c #4F2C2D",
"=  c #662828",
"-  c #7E2B2B",
";  c #683536",
":  c #7B3737",
">  c #672F31",
",  c #6B5132",
"<  c #755937",
"1  c #6C522B",
"2  c #7F6232",
"3  c #070758",
"4  c #16165D",
"5  c #06054C",
"6  c #24164F",
"7  c #362C4F",
"8  c #0A0B69",
"9  c #18156B",
"0  c #0A0B7C",
"q  c #080876",
"w  c #110F77",
"e  c #171676",
"r  c #151066",
"t  c #201D71",
"y  c #251F65",
"u  c #31306E",
"i  c #41285B",
"p  c #641B62",
"a  c #433070",
"s  c #642662",
"d  c #514346",
"f  c #5A5354",
"g  c #674949",
"h  c #7A4948",
"j  c #675253",
"k  c #775858",
"l  c #755841",
"z  c #7F6958",
"x  c #544062",
"c  c #775E60",
"v  c #766567",
"b  c #767376",
"n  c #6B646B",
"m  c #8B0809",
"M  c #960607",
"N  c #891616",
"B  c #A10B0B",
"V  c #AC0C0C",
"C  c #A60707",
"Z  c #BB0C0C",
"A  c #A31413",
"S  c #B91514",
"D  c #90281C",
"F  c #852626",
"G  c #972727",
"H  c #893334",
"J  c #923333",
"K  c #9C3535",
"L  c #A82929",
"P  c #A43B3B",
"I  c #B43838",
"U  c #A21A2F",
"Y  c #D50405",
"T  c #D71717",
"R  c #C80D0D",
"E  c #E51A1B",
"W  c #C7211F",
"Q  c #C82727",
"!  c #D92A2A",
"~  c #CA3939",
"^  c #D93837",
"/  c #C82A3D",
"(  c #E92726",
")  c #E93635",
"_  c #F53738",
"`  c #F42E2D",
"'  c #B05819",
"]  c #8A6837",
"[  c #926E3C",
"{  c #9B743E",
"}  c #A1763E",
"|  c #B0543A",
" . c #F3413F",
".. c #C6532F",
"X. c #8E344D",
"o. c #A63F42",
"O. c #A23676",
"+. c #8B2B79",
"@. c #DE3C61",
"#. c #884646",
"$. c #865253",
"%. c #965556",
"&. c #944645",
"*. c #A74848",
"=. c #BB4445",
"-. c #A85253",
";. c #B35859",
":. c #BA5B40",
">. c #917253",
",. c #AA7F42",
"<. c #9F5F60",
"1. c #876668",
"2. c #996667",
"3. c #9A7374",
"4. c #877677",
"5. c #A76566",
"6. c #A67778",
"7. c #B87879",
"8. c #B56667",
"9. c #C64849",
"0. c #D74848",
"q. c #CE5356",
"w. c #E44646",
"e. c #F54748",
"r. c #F84E50",
"t. c #EC5457",
"y. c #F75657",
"u. c #E94A55",
"i. c #E94362",
"p. c #C57B7C",
"a. c #D77979",
"s. c #D16867",
"d. c #F96162",
"f. c #EB7272",
"g. c #C86B45",
"h. c #CB8F35",
"j. c #B18646",
"k. c #B79760",
"l. c #B8A678",
"z. c #CD964E",
"x. c #D5AB4F",
"c. c #CE956C",
"v. c #DAB966",
"b. c #DAB977",
"n. c #E2BE68",
"m. c #EBCC76",
"M. c #0B0C85",
"N. c #0A0C8B",
"B. c #070884",
"V. c #161486",
"C. c #090B92",
"Z. c #090C9C",
"A. c #070990",
"S. c #0F1098",
"D. c #161797",
"F. c #351793",
"G. c #2F2F89",
"H. c #090CA5",
"J. c #0A0CAB",
"K. c #0F11A9",
"L. c #1214A8",
"P. c #0B0EB2",
"I. c #0E11B8",
"U. c #1517B5",
"Y. c #1F20A6",
"T. c #2E2FB3",
"R. c #562985",
"E. c #4B4495",
"W. c #7C7980",
"Q. c #7273A5",
"!. c #1719C4",
"~. c #1A1CC5",
"^. c #1B1CCC",
"/. c #1316C4",
"(. c #1E20C4",
"). c #2324C5",
"_. c #2527DA",
"`. c #3C3CDF",
"'. c #3638CB",
"]. c #2527E4",
"[. c #2728E6",
"{. c #2B2CEA",
"}. c #2D2EE4",
"|. c #3536E9",
" X c #393AF1",
".X c #2E30ED",
"XX c #3F40F3",
"oX c #4344D9",
"OX c #4243EA",
"+X c #4344F3",
"@X c #4748F7",
"#X c #5253F7",
"$X c #837F87",
"%X c #B57F80",
"&X c #8C8787",
"*X c #958788",
"=X c #958F93",
"-X c #989598",
";X c #A68586",
":X c #BD8788",
">X c #BA9394",
",X c #BA9B9B",
"<X c #AE9294",
"1X c #AC9CA1",
"2X c #ADADAD",
"3X c #A5A4A5",
"4X c #B7A8A9",
"5X c #BDB9BA",
"6X c #8F8EB5",
"7X c #D58888",
"8X c #D69597",
"9X c #C18E8E",
"0X c #EB8C8D",
"qX c #F59394",
"wX c #CBAD9B",
"eX c #E2AC9E",
"rX c #C6A6A5",
"tX c #DDAAAB",
"yX c #D7B9BA",
"uX c #D0B2B4",
"iX c #E1B8B9",
"pX c #F7A2A3",
"aX c #B3B2CD",
"sX c #B7C1C0",
"dX c #CBC5C6",
"fX c #D3C8C8",
"gX c #DCDBDB",
"hX c #D4D3D2",
"jX c #CFD0D0",
"kX c #E7C5C6",
"lX c #E9D5D5",
"zX c #F1D9D9",
"xX c #F3DFE0",
"cX c #E3E2E3",
"vX c #ECECED",
"bX c #EBE7E7",
"nX c #F2F2F3",
"mX c #F8F8F8",
"MX c #F3E9E9",
/* pixels */
"                                                                                                    ",
"                                                                                                    ",
"                                                                                                    ",
"                                                                                                    ",
"                                                                                                    ",
"                                                                                                    ",
"                                                                                                    ",
"                                            T.XXOX+X+X@X@X#X#X                                      ",
"                                        V.).~.~.~.^._._.}.{. X+X#X                                  ",
"                                      4 D.D.S.S.H.J.J.P./._.].{..X+X#X                              ",
"                                        T.oXOXOX+XXX+X+X@X X{.].[..XXX@X       XXX                  ",
"                                    T.|.|.|._.[._._.].].[..X|.`.).[.}.|.OX{.{.[.U.                  ",
"                                V.).^.^.!.!.!.!.~.~.~.!.~._.U.D.< a _.|.|.|._.S.                    ",
"                              w ~.I.I.P.J.P.P.P.P.P.I.P.I.I.K., 1 1 (._._._.Y.                      ",
"                            8 U.K.K.Z.Z.Z.Z.Z.Z.H.H.H.J.J.H.M.y M.S.U.~.^.^.'.                      ",
"                            D.S.S.N.N.M.M.M.M.M.N.C.Z.H.J.H.H.D.L.U.(.~.!.!.).                      ",
"                          r V.e e t t e e w 8 q 8 8 Z.J.H.H.J.Z.E.Q.D.I.I.I.U.                      ",
"                                        e w 0 M.A.Z.J.H.H.H.Z.S.vXnXvXG.J.P.Y.                      ",
"                                      9 L.L.K.K.I.J.H.Z.Z.Z.Z.Y.vXvXvXsXZ.Z.Y.                      ",
"                                    9 L.H.J.J.H.H.H.Z.A.N.N.V.D.cXcXcXsXA.S.                        ",
"                                  8 S.S.Z.C.A.A.A.A.A.N.N.M.0 N.jXhXgX. e G.                        ",
"                                  G.S.N.M.q q q q 0 0 q 0 q y j.v.n.wXl.k.v.                        ",
"                                gXmXmXnX6XnXcXy r 4 4 3 5 5 5 2 ] [ } j.} X                         ",
"                                hXnXnXmXvXgXhXb.m.m.m.x.k.j.7 8 6 , >.                              ",
"                                3XjXjXgXgX2X3Xz l   y 9 8 q A.V.] 2                                 ",
"                              %.%.:XrX5XsX&Xn         3 e B.N.>.{ [                                 ",
"                        &.#.-.7X8X8Xp.:X5.F $ $ $ @ o 6 w B.t ] [ >.                                ",
"                      6.&.8.iXtXtX8Xa.*.J F N - g d 7 4 w e < < l                                   ",
"                    = F *.lXkXiXtXa.;.&.9X7Xq.( E E / O.R.a i r w                                   ",
"                > O % -.tXkXa.p.8.*.2.uX3Xg 1.  : / ) e.e.y.@.X.p a F.            yX                ",
"                O # *.9.gXs.=.*.H 7.=X-Xv   x R.R.F.V.F ! e. .r.i.@.+.+.G H :       xX              ",
"              2.+ # a.a.7XL N @ 2.-X5X$Xu D.C.B.0 q       H / e.e.e.i.@.! ~ I 8.$.=XkX              ",
"              6.& G a.eX..D $ o sX-X2Xu q 0 e               = K 0.y.e.i.` _ w.9.;.2.yX              ",
"              6., 8.f.b.g.' F = 2X5X-Xe t n                   * &.q.t. .` _ e.y.0.-.uXkX  xX        ",
"              ;X#.p.f.x.z.z.6.h 3X3X-XW.b b                     3.p.s. .` _ e.r.t.9.tXkX  xX        ",
"              >X%.%X0Xh.x.v.dX2X=X&X=X&X-X                    ; 4X4XwXq.T ` e.r.e.w.8XkX  xX        ",
"              ,Xh <.0Xz.z.h.fXrX*Xk.x b                       3.2XfXdX7.Z E  .y.r.w.0XyX  lX        ",
"              ,X$.<.a.c.c.' :X8.<.4.f O                       fX*X,XgX>XB T ` y.y.) 7XrX  lX        ",
"                ,X%X7.wX:.| ;.K K #.k >                       4X-X*XnX6.M T ` r.d.^ 7.;Xf           ",
"                rX>X$.,X*.I ;.I S B #.k O                   vX  1.hXbX- M T ) y.y.~ 1.v k           ",
"                  rX,X#.%.=.0.a.Q T C H k #           dXcXfX& j jXvX;Xm Z !  .y.t.P v f             ",
"                    rX>X3.F ~ f.0X! T Z A J : O     4.k k $XuXcXcX;XN A T ) e.t.9.$.j               ",
"                      rX,X2.J ^ d.qX( Y Y R C F h &X3XdXgXgXfX1X$.N S T )  .0.9.: d &               ",
"                          rX%X%.9.w.y.pX( Y Y Z G H h l h X.- N M R T ^ ^ ~ =.> d .                 ",
"                              >X6.5.;.~ ( e.f.w.Q A m M M C V R R W Q ~ I J = &                     ",
"                                            F N m m m M M M C A L G G F = *                         ",
"                                                          # # # #                                   ",
"                                                                                                    ",
"                                                                                                    ",
"                                                                                                    "
};
