/* XPM */
static char *_9618af9d4f14d23c32f97bc937c35121K91y2wPka9KvObk[] = {
/* columns rows colors chars-per-pixel */
"50 50 99 2 ",
"   c None",
".  c #753A08",
"X  c #7C3D09",
"o  c #803F09",
"O  c #83410A",
"+  c #8C450A",
"@  c #90470B",
"#  c #944A0B",
"$  c #9B4E0C",
"%  c #9F500C",
"&  c #B64E09",
"*  c #A3530D",
"=  c #A9560D",
"-  c #AD590E",
";  c #BC560B",
":  c #B35D0E",
">  c #BB5B0D",
",  c #B7600F",
"<  c #BA610F",
"1  c #BD6410",
"2  c #BF6A11",
"3  c #C85D0E",
"4  c #D55407",
"5  c #EF4201",
"6  c #E65705",
"7  c #EE5203",
"8  c #E25905",
"9  c #F55402",
"0  c #F95301",
"q  c #F65B03",
"w  c #C3620F",
"e  c #CB660E",
"r  c #D5650D",
"t  c #DF640A",
"y  c #C16610",
"u  c #C46911",
"i  c #C96D11",
"p  c #D26F12",
"a  c #DE6F10",
"s  c #CD7113",
"d  c #D27513",
"f  c #D67914",
"g  c #DB7D14",
"h  c #E86307",
"j  c #EC6D0C",
"k  c #F36406",
"l  c #FA6B06",
"z  c #F26B09",
"x  c #E6700C",
"c  c #EF730D",
"v  c #EF780F",
"b  c #F4740C",
"n  c #F47E0E",
"m  c #FA7B0C",
"M  c #EB7B13",
"N  c #F17E11",
"B  c #D58217",
"V  c #DE8115",
"C  c #D58018",
"Z  c #DB8518",
"A  c #DB8A1A",
"S  c #FB860F",
"D  c #E28516",
"F  c #ED8011",
"G  c #E68A17",
"H  c #E98C17",
"J  c #E08718",
"K  c #E58C19",
"L  c #E98E18",
"P  c #F18113",
"I  c #F38B15",
"U  c #F98D12",
"Y  c #F68F18",
"T  c #E6941B",
"R  c #EC9419",
"E  c #E59B1F",
"W  c #EC9A1B",
"Q  c #F79416",
"!  c #F59719",
"~  c #F19B1B",
"^  c #EEA21E",
"/  c #F5A51D",
"(  c #F9A21A",
")  c #F5A91E",
"_  c #F9AC1F",
"`  c #EDA421",
"'  c #EEAC22",
"]  c #F1A520",
"[  c #F4AC21",
"{  c #F9AE20",
"}  c #F6B322",
"|  c #FAB321",
" . c #F7BD26",
".. c #FBBB23",
"X. c #FDC425",
"o. c #FECA27",
"O. c #FBC529",
"+. c #FECE29",
"@. c #FED02B",
/* pixels */
"                                                                                                    ",
"                                      O.) T V V V J `                                               ",
"                                  ] ^ ) D V i u < < < 2 s '                                         ",
"                              O.} +.o.X.V i = # O . . X + * 2                                       ",
"                            ' X.@.@.o.^ u @ @ @ + O O o X # * : E                                   ",
"                          )  .@.+.X.T u % % @ O # $ $ + # # + $ - A                                 ",
"                         .W o.o.o.T s - * @ $ : : : = * $ $ * % @ - C                               ",
"                        g X.X.X.W d < - # * , < : y f V D g d - - # - Z                             ",
"                      T W / | _ g d : % % 1 1 ; 8 k v R { { / R i : % - E                           ",
"                    O.V L ! L G g d - # , 3 9 k j N l 0 m | | { ) V < $ :                           ",
"                    T G W W H g g y % - i k O.@.} Z / ..S 0 { | _ _ G < $ 2                         ",
"                    D ~ { ( G D g , # y k           ' } ..| 0 _ | _ _ f > % A                       ",
"                  } D | | / D / f : = r                 | ..| q | _ _ _ i : :                       ",
"                  } T | { ( T X.i = , v                   ....} q | | _ R u % f                     ",
"                  X.) | { ~ X.X.i $ y                     } ..| ( U } _ ) f < -                     ",
"                  o.| | _ ~ o.X.u $ r                       / ..| z _ _ _ W s * C                   ",
"                 .o.| | _ ~ +...y % j                         ] | | b _ _ _ g 1 :                   ",
"                ..X.| _ ) W +.} 1 = P                         [ ..| m | _ _ D s %                   ",
"                } ..| | _ ~ @.} 1 - Y                           W } } b _ _ H V - s                 ",
"                ..} | _ ( W o.} 1 -                             ] | | h _ _ W M u :                 ",
"                } { } { / ~ o.} 2 -                               T | ( ~ / ~ G f %                 ",
"                ..] } _ / ~ X.| y =                               L _ | h / ! H D * Z               ",
"                { { | _ / ~ ..[ i * I                             ] L _ 4 { ! L D : s               ",
"                [ ) { _ / ! R G d $ M                               H } N { ~ L G u ,               ",
"                [ L | _ / ~ R G g $ a                               G / ! ~ / R K i =               ",
"                  L { { { / L G V = e                               T ~ _ I / / ..f *               ",
"                  H _ } { _ G G D 1 1                               } ) } N / / o.f %               ",
"                  H / { _ / ! G D u *                               } ..| b _ / +.f % T             ",
"                  L W _ _ / / G D d % a                             } O.| b [ { @.f $ K             ",
"                  W R { _ _ / ~ V g : 1                             ..O.| b / ..@.f % K             ",
"                    H | { _ / / G V y * Y                           } { | m [ ..+.s % K             ",
"                    G | | _ { { ~ D d $ e                           { G _ Y ~ W  .u *               ",
"                    R | } | _ _ _ G g < - !                         W D S Q G G W < -               ",
"                      / | } { _ _ ) g i $ e                         D G q R D V d - <               ",
"                      K ..| | { _ _ ~ f < * F                     @.g X.q X.D g u % y               ",
"                        | | | { | _ ( D u * < (                   o.K U ! X.g f , % d               ",
"                        ~ | | | | _ _ _ d < $ w                   T X.9 +.^ s < = - J               ",
"                          ..| | | _ _ _ / u : * 3 {             @.G q Q X.d , - # 2                 ",
"                          W ..| | | } _ ) W w = * w N         +.} 7 6 T f = = * - p                 ",
"                            | ..| | | _ _ _ L < * * 1 4 b _ / z 5 4 i 2 $ % * # 1 f                 ",
"                            ] ..| | | | | _ _ G , * $ : 1 , & ; 1 , = O + $ + : :                   ",
"                              ] ..| | | | | _ _ K : = + * = = % O X . + + + : 1 C                   ",
"                                [ ..| | | | | | { R 2 = $ + # % @ X O O $ : 1 :                     ",
"                                  } ....| | | _ { { ~ d = % # @ + + $ = : 1 :                       ",
"                                    { ....| | | { | { / G d , $ % * = = - * W                       ",
"                                      ] ......| | | | | { / D M g f f d : E                         ",
"                                          } ......| | | | | } R K K D f                             ",
"                                              { ....| ..| ..| ] ! K J                               ",
"                                                  W ^ ] / ~ R K                                     ",
"                                                                                                    "
};
