/* XPM */
static char *_9cbf0226fc44015d6eff1bec2e11a7bvWYzLbpgfMdS8n6j[] = {
/* columns rows colors chars-per-pixel */
"50 50 256 2 ",
"   c black",
".  c #010101",
"X  c #020202",
"o  c gray1",
"O  c #040404",
"+  c gray2",
"@  c #060606",
"#  c #070707",
"$  c gray3",
"%  c #090909",
"&  c gray4",
"*  c #0B0B0B",
"=  c #0C0C0C",
"-  c gray5",
";  c #0E0E0E",
":  c gray6",
">  c #101010",
",  c #111111",
"<  c gray7",
"1  c #131313",
"2  c gray8",
"3  c #151515",
"4  c #161616",
"5  c gray9",
"6  c #181818",
"7  c #191919",
"8  c gray10",
"9  c #1B1B1B",
"0  c gray11",
"q  c #1D1D1D",
"w  c #1E1E1E",
"e  c gray12",
"r  c #202020",
"t  c gray13",
"y  c #222222",
"u  c #232323",
"i  c gray14",
"p  c #252525",
"a  c gray15",
"s  c #272727",
"d  c #282828",
"f  c gray16",
"g  c #2A2A2A",
"h  c gray17",
"j  c #2C2C2C",
"k  c #2D2D2D",
"l  c gray18",
"z  c #2F2F2F",
"x  c gray19",
"c  c #313131",
"v  c #323232",
"b  c gray20",
"n  c #343434",
"m  c #353535",
"M  c gray21",
"N  c #373737",
"B  c gray22",
"V  c #393939",
"C  c #3A3A3A",
"Z  c gray23",
"A  c #3C3C3C",
"S  c gray24",
"D  c #3E3E3E",
"F  c #3F3F3F",
"G  c gray25",
"H  c #414141",
"J  c gray26",
"K  c #434343",
"L  c #444444",
"P  c gray27",
"I  c #464646",
"U  c gray28",
"Y  c #484848",
"T  c #494949",
"R  c gray29",
"E  c #4B4B4B",
"W  c #4C4C4C",
"Q  c gray30",
"!  c #4E4E4E",
"~  c gray31",
"^  c #505050",
"/  c #515151",
"(  c gray32",
")  c #535353",
"_  c gray33",
"`  c #555555",
"'  c #565656",
"]  c gray34",
"[  c #585858",
"{  c gray35",
"}  c #5A5A5A",
"|  c #5B5B5B",
" . c gray36",
".. c #5D5D5D",
"X. c gray37",
"o. c #5F5F5F",
"O. c #606060",
"+. c gray38",
"@. c #626262",
"#. c gray39",
"$. c #646464",
"%. c #656565",
"&. c gray40",
"*. c #676767",
"=. c #686868",
"-. c DimGray",
";. c #6A6A6A",
":. c gray42",
">. c #6C6C6C",
",. c #6D6D6D",
"<. c gray43",
"1. c #6F6F6F",
"2. c gray44",
"3. c #717171",
"4. c #727272",
"5. c gray45",
"6. c #747474",
"7. c gray46",
"8. c #767676",
"9. c #777777",
"0. c gray47",
"q. c #797979",
"w. c gray48",
"e. c #7B7B7B",
"r. c #7C7C7C",
"t. c gray49",
"y. c #7E7E7E",
"u. c gray50",
"i. c #808080",
"p. c #818181",
"a. c gray51",
"s. c #838383",
"d. c #848484",
"f. c gray52",
"g. c #868686",
"h. c gray53",
"j. c #888888",
"k. c #898989",
"l. c gray54",
"z. c #8B8B8B",
"x. c gray55",
"c. c #8D8D8D",
"v. c #8E8E8E",
"b. c gray56",
"n. c #909090",
"m. c gray57",
"M. c #929292",
"N. c #939393",
"B. c gray58",
"V. c #959595",
"C. c gray59",
"Z. c #979797",
"A. c #989898",
"S. c gray60",
"D. c #9A9A9A",
"F. c #9B9B9B",
"G. c gray61",
"H. c #9D9D9D",
"J. c gray62",
"K. c #9F9F9F",
"L. c #A0A0A0",
"P. c gray63",
"I. c #A2A2A2",
"U. c gray64",
"Y. c #A4A4A4",
"T. c #A5A5A5",
"R. c gray65",
"E. c #A7A7A7",
"W. c gray66",
"Q. c #A9A9A9",
"!. c #AAAAAA",
"~. c gray67",
"^. c #ACACAC",
"/. c gray68",
"(. c #AEAEAE",
"). c #AFAFAF",
"_. c gray69",
"`. c #B1B1B1",
"'. c #B2B2B2",
"]. c gray70",
"[. c #B4B4B4",
"{. c gray71",
"}. c #B6B6B6",
"|. c #B7B7B7",
" X c gray72",
".X c #B9B9B9",
"XX c gray73",
"oX c #BBBBBB",
"OX c #BCBCBC",
"+X c gray74",
"@X c gray",
"#X c gray75",
"$X c #C0C0C0",
"%X c #C1C1C1",
"&X c gray76",
"*X c #C3C3C3",
"=X c gray77",
"-X c #C5C5C5",
";X c #C6C6C6",
":X c gray78",
">X c #C8C8C8",
",X c gray79",
"<X c #CACACA",
"1X c #CBCBCB",
"2X c gray80",
"3X c #CDCDCD",
"4X c #CECECE",
"5X c gray81",
"6X c #D0D0D0",
"7X c gray82",
"8X c #D2D2D2",
"9X c LightGray",
"0X c gray83",
"qX c #D5D5D5",
"wX c gray84",
"eX c #D7D7D7",
"rX c #D8D8D8",
"tX c gray85",
"yX c #DADADA",
"uX c gray86",
"iX c gainsboro",
"pX c #DDDDDD",
"aX c gray87",
"sX c #DFDFDF",
"dX c gray88",
"fX c #E1E1E1",
"gX c #E2E2E2",
"hX c gray89",
"jX c #E4E4E4",
"kX c gray90",
"lX c #E6E6E6",
"zX c #E7E7E7",
"xX c gray91",
"cX c #E9E9E9",
"vX c #EAEAEA",
"bX c gray92",
"nX c #ECECEC",
"mX c gray93",
"MX c #EEEEEE",
"NX c #EFEFEF",
"BX c gray94",
"VX c #F1F1F1",
"CX c gray95",
"ZX c #F3F3F3",
"AX c #F4F4F4",
"SX c gray96",
"DX c #F6F6F6",
"FX c gray97",
"GX c #F8F8F8",
"HX c #F9F9F9",
"JX c gray98",
"KX c #FBFBFB",
"LX c gray99",
"PX c #FDFDFD",
"IX c #FEFEFE",
"UX c white",
/* pixels */
"*.' :.0.} #.6.+.t. .} I #.%.%...( 9.<.} ,.5.&.:.,.F.r.%./ +.Z.2.! 2.` G 2.S | [ ,.{ _ $.X.,.| ,.o.y.",
"P =.;.:.f.( G w.7.E Q f.Z.T ^ &.W O.#.@.-...~ { 2.| :.>.{ ) ..r.N.x.O.} j.>.0.( m ` 9.9.X.y.:.| &.p.",
"o. .X.$.G.4...=.>.C.s.r.7.` <.H I 8.s.+./ =.q.5.j.%.X. .<.h.8.O.g.i.<.6.8.,.s. .X.2.g.3.I 0.u.,.$.w.",
"} +.a.*.r.;.d.9.O.0.=.;.O.E ;.O.J -.7.) L =.q.O.*.j.@.] ] >.m.` ( [ =.q.' | t.o.%.` 5.s._ $.[ L 3.d.",
"_ 2.p.( 4...2.9.=.] X.9.>.) ( 4.>.o.&.q.r.4.+.~ 4.2.I o.=.#.i.{ [ R ) %.] <.a.[ } K ;.b.O...W K @.3.",
"9.+.1.$.,.{ =.{ 2.5.5.@./ *.{ O./ ..*.&.o.` ^ / z.~ J | a.N.1.~ #.^ ! W O.w.f.&.:.@.8.8.P } $.3.p.z.",
"0.2.x.a.{ ! >.&.;.{ S ) P T } e.! d.d.' E o.,.8.o.{ =.o...1.#.) *.*.&.P <.3.6.;.) o.4.<.R X.[ o.r.i.",
"7.U.w.( 6.r.o.,.7.6.F %.~ F +.8.+.e.%.R | #.[ X.*.9. .,.+.! 1.) a.j.p.! k.7.X.( ` ' +.2.%.4.| $.<.>.",
">.5.e.w.$.0.@.( q.x.o.~ ^ $.` ,.1.#._ T ..4./ K #.s.&.-.t.{ b.u.s.c.y.O.B.}  .#.s.<.I 5.=.' | :.{ } ",
"t.:.~ | ` &.| Q &.6.( /  .5.1.n.N.W n _ 4.o.P *.U %.3.A.(.0.b.d.r.a.;.[ y.E W ..a.V.{ O.s.&.R +.` _ ",
"~ %.' 2.{ ) ,.t.| #.^ [ ..{ R $.0.E H ! =.[ S ! +.#. .+.-._ ,.1.E %.X.>.q.^ ) w.1.2.0.n.Z.8.f.Z...[ ",
"*.a.| 7.;.o.<.#.-.$.| *.=./ L .. .} @.Y }  .^ Q [ +.O.) X.0.j.5.<.w.#.a.u.O.' r.) *.N.d.0.0.b.&.` ^ ",
"&.m.X.+.[ | <.+.$._ ' =.6.$.<.c.1.Q ~ J X.~ _ 3._ } | o.&.j.v.>.d.6.K *.*. .Q $.3.&.;.4.H.3.Q ^ -.>.",
"H h.5.-.{ +.2.9.@._ -.t.g.;.1.u.j.| X.( w.@. .=.i.=.~ =.{ O.5.$.} %._ 5.X.T Y $.j.[ ;.x.A.4.} ;.~ } ",
"o.s.:.=.3.e.} ` 2.#.u.z.x.@.+.O.r.q.v.&.k.e.1.{ r.0.$.D.e.,.k.6.o.i.l.V.=.H E *.>.1.C.8.D 8.i.Q ..@.",
"~ <.$.{ [ #./ 0. .U | ..#.R O.&.! } t.W #.) ..X.$.q...g.{ ) p.o.O.*.X.#._ P | -.1.#.%.=.[ 4.$.s.6.>.",
"0.a.| | i. .3...} Y +.C { Q <.8./ X.3.*.o._ F T 3.) 4.x.+.} 1.$.d.e.;.) | } H ! +.^ -.7.X.y.i.F.w.;.",
"y.M.$.4.=.%.=.6.&.5.a.| ] I <.q.,.o.4.7.%./ U +.x.%.{ } @.X.*.@.O.;.t.>./ K ^ f.>. .X.5.%.,.| $.1.3.",
"%.8.;.t.2.>.` o.^ >.*.>.<.,.n.z.x...| X.[ [ R J P 1.h.} ' S  .w./ N Y ] { X.-.j.^ ) J +. .^ K Q [ 1.",
"] E $.#.u.=.` R *.y.o.s.0.>.i.9.t. .+.] ( 7.6._ P -.g.' ,. .:.| { ~ 2.3.) ( *.d.} 4.' 2.$.Q _ 2.6.3.",
":.! | ^ @.{ @.=.y.v.-.n.;.~ :.a.6.,.j.2.Y ] *.@.L.7.w.;.n.p.j.+.) } y.4.^ ] *.6.7.v.>.w.*.~ ` ,.8.,.",
"=.%. .>.L E ..0.5.;.P >.+.+.a.U.s.-.y.t.{ I U ..t.I _ %.3.E }  .&.) _ ~ O.w.%.T @.2...-... .( ` } %.",
"_ &.%.j._ G ' O.9...F ! ..8.d.n.4.W ] 5.p.9.-.y.+.[ [ *.d.5.+...e.r.y.*.o...Q ] X.%.,.2...6.%.O.;.=.",
"' X.:.p.5.V #.W -.%.#.`  .q.p.j.] T / X.6.9.$.4.D d.7.^ >.t.+.| { <.u.:.{ R ! f.5.w.M.t.~ ,.O.O.<.-.",
"$...e.Y W *.,.$.*.=.3.X.l.i.A.>.%.o.e.:.g.1.O.s.:.c.8.O.( 9.;.X.Y ,.$.3.j.-...4.1.q.N.3.=.c.w.+.1.#.",
"O.,.` o.@.8.V.q.2.| -.G.g.+.-.,...&.u.y.k.) ~ z.p.o.P 6.w.@.Z E 9.*.;.s.a.x.D.2.N.q.=.4.3.*.-.%.] ` ",
",.r.| ;.L T O. .6.P $./.u.E O.&.J t.g.9.j.;.2.v.7.O.+.B.j./ c ' q.5.a.f.o.:.M.<.&.=.R } $.+.r.,.| #.",
"2.{ *.#.T } ^ 1.n.` w.a.:.F 1.G $.F.r.:.p.-.%.*.D <.s.9.#.{ / ' 0.<._ { &.*.$.Y [ 3.#.| } [ o.W 6.a.",
"v.] :.1.k.n.p.f.o.H %.o.#.%.W.6.7.9.E &.q.E P &.U 4.6.^ X.w.5.^ <.[ L +.8.:.#.~ >.%.;.&.1.$.F U U ' ",
"n.w.4.g.A.;.i.&.u.6.<.8.[ ' 2.&.( ` K X.+.) _ 8.w.<.#.} 6.>.o./ >.! $.v.1.X.q.$.O.] { Q 7.x.] ( ( O.",
"| ;.5.b.w.! &.#.d.q.} ;.:.^ ) ;.} =.1.:.` <.O...<.] | %.q.W G R 9. .o.y.5.=.4._ ;.0.#.^ 7.d...Y =.;.",
"} { a.C.5.7.` 1.k.,.E F a.E ^ +.;.{ 3.d.,.h.=.&.Q R ..-.z.:.| / R e.2.&.;.! ^ 1.t.g.$.y.m.@.[ =.q.>.",
"+.-.%.,.1.;.<.*.9.J.{ ^ o.K o.*.o.X.i.7.$.z.} 1.} P ;.a.} E ] L @.| <.6.9.c.g.:.o.+.i.B.$.X.{ q.' / ",
"b.h.u.6.1.>.+.} X.t.| / ) / w.j.j.h.7.+._ w.=.@.d.>._ / ) ~ ,.I.:.@.} [ ;.7.$.] A ..p.l.e.*.I } ^ Q ",
"f.y.l.<.+.,.+.1.X.=.6.;.^ [ 8.r.z.6.( 6.6.:.0.z.I <.,.>.p.%.P X.:.6.' ! ,.>.=.h.4.8.*.U #.%.{ 6.&.@.",
"_ ..h.%.) <.:.b.j.*.f.e.^ } -.,.l.&.~ 3.:.T { u.6.=. .} ( K T #.@.0.~ ^ p.,...h.A.3.+.U <.4.1.6.| | ",
"~ | g.$.' 5.-.s.S.} 1.-.~ &.3.t.p.*.| I E [ | %.c.H } h.{ E 7.t.8.k.` +.V.3.! O.v.( ;.2.5.:.w.7.,.<.",
"@.-.t.#.+.w.%.o.,.R [ ` ' <.:.2.f.+.&.%.f.x.y.e.0.R 1.p.~ <.P.q.q.x...O.6.} &.p.9.G ,.y._ ~ w.c.' [ ",
"+.7.r.-.=.q.2.} ^ &.#.I _ ,.@...M.3.6.S.`.q.4.<.E ;.t.=. .q.w.~ *.1.T ~ ~ Y q.h.{ Y 7.c.X.{ &.r.W / ",
"} d.l.q.>.5.u.,.#.G.q.n K ;.2.3.&.7.=.y.a.J %./ %.u. .Q <.` A ,.i.;.H @.4.1.y.R :.*.2.t.$.1.O.8.! ( ",
"6.m.%.( b.c.' ( &.$.] @.1.q.f.3.) O.M.j.<.=.v.d.#.#.N.7.F o.p.k.p.} { | | { } a.$.W -.3.{ -.E ;.i.#.",
"E 6.>.>.A.M.>.4.} P R &.&.5.s.' ~ L ' ! } -.x.s.>.W &.:.{ O...X.) #.^ 5.%.Z =.0.#.,.g.=.P 2.@.1.+.>.",
"T :.5.<.2. .! O.%. .,.:.b G r.-.H Y X.' ..~ _ R ] ! O.@.] `  .w.} C X. .} | Z +._ <.M.p.#.f.&.{ e.| ",
"l.,.) | 5.4.../ ~ ] o.O.! O.1.V ,.4.q.$.*.! ) } ....( / 1.i.5.3.*...W %.>.{ O. .<.[ o.2.=.a.3.w.V.@.",
"m.9.=.<.4.-.X.[ >.s.o.Y ;.S.T.d.../ ~ Y O.( ' } | *. .*.h.u.@.[ ]  .) %.%.] ;.2.3.T J $.@.2.,.f.j.k.",
"#.:.0.y.2.[ E Q C 7.%.( <.e.5.@.r.<.0.4.8.X.*.>.%.-.+.e.s.{ ) <.:.T +.' @.0.) #.*. .{ ,.' } { &.f.1.",
"| ( E $.x.l.+.J >.4./ E ..+.#.[ C.9.r.-.) S o.<.k.&.D $.p.*.$.=.k.u.T =.s.7.r.Q 7.;.' X.I ` =.9.'.r.",
"] $...| =.X.I J U ^ @.6.) Z X.4.;.K { =.=.' #./ 4.<.` =.1...%.| g.*.X.' &.q.$.O.` U H 1.1.0.y.g.&.-.",
"t.O.h.g.4.~ ^ ] ] @.:.0._ ` [ &. .' ) I f.-.O.o.&.^ r.h.-.| _ ;.4.4.` { 2.3.;._ |  .~ &.a.| <.:.S ) ",
"Z.;.y.9.;._ ..*.{ #.;.8.) ` { *.} | ..W d.%.O.%.5.] 7.w..._ } 8.t.y.} ) *.,.*.! { } E X.9.( :.>.! $."
};
